<svg width="1920" height="1043" viewBox="0 0 1920 1043" fill="none" xmlns="http://www.w3.org/2000/svg">
<path d="M2051 511.76L1958.38 510.514V437.332L1388.26 444.983C1388.26 444.983 1078.99 437.846 948.832 429.681C929.999 428.501 911.64 425.77 893.898 421.868C834.159 408.716 780.172 381.147 736.775 343.567C734.439 341.54 732.052 339.513 729.623 337.476C706.458 318.082 679.547 298.801 649.785 284.641C614.158 267.683 574.465 258.071 532.282 264.38C434.353 279.026 303.77 205.693 229.397 106.845C145.319 -4.9158 0 0.0327501 0 0.0327501V1038.29C0 1038.29 94.6671 1075.21 225.095 942.379C355.514 809.558 406.176 791.02 455.758 783.302C505.34 775.585 673.887 798.186 755.402 681.372C755.495 681.239 755.577 681.115 755.669 680.991C771.579 658.275 794.477 639.728 821.676 627.147C851.571 613.32 882.434 602.718 907.658 600.377C983.811 593.316 1154.64 592.136 1241.06 579.898C1327.47 567.66 1958.37 579.898 1958.37 579.898V514.377C2015.02 512.76 2050.99 511.76 2050.99 511.76H2051Z" fill="url(#paint0_linear_95_106)"/>
<path d="M2051 515.523L1958.38 514.514V455.35L1388.26 461.536C1388.26 461.536 1078.99 455.769 948.832 449.165C912.505 447.318 877.968 440.838 846.128 431.807C806.6 420.587 769.727 402.62 736.765 379.542C734.429 377.905 732.052 376.269 729.633 374.632C706.468 358.949 679.557 343.361 649.795 331.912C614.168 318.209 574.476 310.434 532.293 315.535C434.363 327.373 303.781 268.095 229.407 188.186C145.319 97.8461 0 101.853 0 101.853V941.174C0 941.174 94.6671 971.018 225.095 863.644C355.514 756.27 406.176 741.291 455.758 735.048C505.34 728.805 673.887 747.077 755.402 652.645C755.495 652.54 755.577 652.436 755.669 652.331C771.106 634.507 791.235 620.632 813.989 611.743C846.22 599.153 880.273 589.218 907.668 587.163C983.821 581.453 1154.65 580.501 1241.07 570.613C1327.48 560.726 1958.38 570.613 1958.38 570.613V517.645C2015.03 516.332 2051 515.523 2051 515.523Z" fill="url(#paint1_linear_95_106)"/>
<defs>
<linearGradient id="paint0_linear_95_106" x1="0" y1="521.5" x2="2051" y2="521.5" gradientUnits="userSpaceOnUse">
<stop stop-color="#D9D9D9"/>
<stop offset="1" stop-color="#656565"/>
</linearGradient>
<linearGradient id="paint1_linear_95_106" x1="2051" y1="523.405" x2="0" y2="523.405" gradientUnits="userSpaceOnUse">
<stop stop-color="#A9A9A9"/>
<stop offset="1" stop-color="#A8A5A5"/>
</linearGradient>
</defs>
</svg>
